<?xml version="1.0" encoding="utf-8"?>
<!-- Generator: Adobe Illustrator 15.0.0, SVG Export Plug-In . SVG Version: 6.00 Build 0)  -->
<!DOCTYPE svg PUBLIC "-//W3C//DTD SVG 1.1//EN" "http://www.w3.org/Graphics/SVG/1.1/DTD/svg11.dtd">
<svg version="1.1" id="Layer_1" xmlns="http://www.w3.org/2000/svg" xmlns:xlink="http://www.w3.org/1999/xlink" x="0px" y="0px"
	 width="715px" height="134px" viewBox="0 0 715 134" enable-background="new 0 0 715 134" xml:space="preserve">
<g>
	<g>
		<path fill="#D7D9FF" d="M71.495,114.057c1.694,5.429-1.196,11.206-6.422,12.836c-5.226,1.63-10.888-1.478-12.582-6.907
			l-25.49-81.7c-1.694-5.429,1.196-11.206,6.422-12.836c5.226-1.631,10.888,1.478,12.582,6.907L71.495,114.057z"/>
	</g>
	<g>
		<path fill="#393F4D" d="M113.17,101.054c1.694,5.429-1.196,11.206-6.421,12.836c-5.226,1.63-10.888-1.478-12.582-6.907
			l-25.491-81.7c-1.694-5.429,1.196-11.206,6.422-12.836c5.226-1.631,10.888,1.478,12.582,6.907L113.17,101.054z"/>
	</g>
	<g>
		<path fill="#684D5E" d="M26.024,72.057c-5.429,1.694-11.206-1.196-12.836-6.421c-1.631-5.226,1.478-10.888,6.907-12.582
			l81.701-25.49c5.429-1.694,11.206,1.196,12.836,6.421s-1.478,10.888-6.907,12.582L26.024,72.057z"/>
	</g>
	<g>
		<path fill="#683D3D" d="M38.742,112.819c-5.429,1.694-11.206-1.196-12.836-6.421c-1.63-5.226,1.478-10.888,6.907-12.582
			l81.7-25.49c5.429-1.694,11.206,1.196,12.836,6.421c1.631,5.226-1.478,10.888-6.907,12.582L38.742,112.819z"/>
	</g>
	
		<rect x="80.727" y="72.651" transform="matrix(-0.2978 -0.9546 0.9546 -0.2978 47.0193 199.7936)" fill="#393F4D" width="32.522" height="19.907"/>
	
		<rect x="33.101" y="39.764" transform="matrix(0.9546 -0.2978 0.2978 0.9546 -14.8192 15.3785)" fill="#D7D9FF" width="19.906" height="33.107"/>
	
		<rect x="45.359" y="81.322" transform="matrix(0.9546 -0.2979 0.2979 0.9546 -25.9663 20.8144)" opacity="0.52" fill="#D7D9FF" width="19.906" height="28.571"/>
	
		<rect x="33.1" y="40.849" transform="matrix(0.2978 0.9546 -0.9546 0.2978 83.9935 -1.5545)" opacity="0.8" fill="#684D5E" width="19.907" height="30.938"/>
	
		<rect x="74.776" y="28.165" transform="matrix(0.9546 -0.2979 0.2979 0.9546 -9.0557 27.2028)" opacity="0.8" fill="#393F4D" width="19.906" height="30.299"/>
	
		<rect x="86.611" y="72.157" transform="matrix(0.2978 0.9546 -0.9546 0.2978 148.3269 -32.9539)" opacity="0.48" fill="#683D3D" width="19.907" height="24.389"/>
</g>
<g>
	<path fill="#393F4D" d="M186.869,63.858c-0.4-2.713-1.418-4.689-3.054-5.928c-1.637-1.237-4.132-1.856-7.485-1.856
		c-3.194,0-5.61,0.38-7.246,1.138c-1.638,0.76-2.456,2.057-2.456,3.893c0,1.598,0.818,2.874,2.456,3.833
		c1.635,0.958,4.012,1.877,7.126,2.754c5.109,1.437,9.42,2.655,12.935,3.653c3.513,1,6.327,2.176,8.444,3.533
		c2.115,1.358,3.632,3.054,4.551,5.09c0.917,2.036,1.377,4.772,1.377,8.204c0,5.27-2.197,9.642-6.587,13.115
		c-4.392,3.473-10.899,5.21-19.522,5.21c-4.233,0-8.066-0.479-11.498-1.438c-3.434-0.958-6.369-2.335-8.803-4.132
		c-2.437-1.796-4.312-3.952-5.629-6.467s-2.017-5.33-2.096-8.444h16.048c0,2.796,1.097,4.952,3.294,6.468
		c2.195,1.518,5.049,2.275,8.563,2.275c2.953,0,5.489-0.458,7.605-1.377c2.115-0.917,3.174-2.335,3.174-4.251
		c0-2.156-0.778-3.713-2.335-4.671c-1.557-0.958-3.934-1.797-7.126-2.515c-5.749-1.276-10.381-2.614-13.893-4.012
		c-3.515-1.396-6.249-2.935-8.204-4.611c-1.958-1.677-3.275-3.512-3.952-5.509c-0.68-1.995-1.018-4.231-1.018-6.707
		c0-2.235,0.458-4.351,1.377-6.348c0.917-1.995,2.375-3.752,4.372-5.27c1.995-1.516,4.59-2.734,7.785-3.653
		c3.192-0.917,7.105-1.377,11.737-1.377c8.462,0,14.651,1.718,18.564,5.15c3.911,3.434,6.067,8.186,6.467,14.252H186.869z"/>
	<path fill="#393F4D" d="M206.749,104.938V24.455h15.57v80.483H206.749z"/>
	<path fill="#393F4D" d="M264.716,104.938c-0.479-1.516-0.799-3.273-0.958-5.27c-1.837,2.077-4.272,3.733-7.306,4.97
		c-3.035,1.237-6.548,1.856-10.54,1.856c-6.788,0-11.758-1.497-14.911-4.491c-3.155-2.994-4.73-6.887-4.73-11.677
		c0-4.231,0.677-7.605,2.036-10.121c1.357-2.515,3.234-4.491,5.629-5.928c2.395-1.438,5.249-2.495,8.563-3.174
		c3.313-0.678,6.926-1.297,10.839-1.856c3.911-0.558,6.546-1.297,7.904-2.216c1.357-0.917,2.036-2.414,2.036-4.491
		c0-1.917-0.898-3.414-2.695-4.491c-1.796-1.078-4.212-1.617-7.246-1.617c-3.593,0-6.168,0.799-7.725,2.396
		c-1.557,1.598-2.536,3.713-2.935,6.348h-14.492c0.079-3.033,0.578-5.827,1.497-8.384c0.917-2.554,2.396-4.75,4.432-6.587
		c2.036-1.836,4.689-3.252,7.964-4.252c3.273-0.998,7.265-1.497,11.977-1.497c4.63,0,8.563,0.521,11.797,1.557
		c3.233,1.039,5.827,2.536,7.785,4.491c1.956,1.958,3.372,4.392,4.252,7.306c0.877,2.916,1.317,6.209,1.317,9.881v37.248H264.716z
		 M263.639,76.075c-0.799,0.799-1.958,1.437-3.473,1.916c-1.518,0.479-3.713,1-6.587,1.557c-4.473,0.879-7.545,1.997-9.222,3.354
		c-1.677,1.358-2.515,3.314-2.515,5.869c0,4.392,2.515,6.587,7.545,6.587c1.995,0,3.852-0.338,5.569-1.018
		c1.716-0.677,3.192-1.596,4.431-2.754c1.237-1.157,2.234-2.515,2.994-4.072c0.758-1.557,1.138-3.213,1.138-4.97L263.639,76.075z"/>
	<path fill="#393F4D" d="M337.893,83.62c-0.401,3.434-1.377,6.548-2.935,9.342c-1.557,2.796-3.533,5.191-5.928,7.186
		c-2.396,1.997-5.131,3.554-8.204,4.671c-3.075,1.117-6.408,1.677-10,1.677c-3.994,0-7.646-0.659-10.959-1.976
		c-3.314-1.318-6.168-3.313-8.563-5.989c-2.396-2.674-4.252-5.988-5.569-9.94s-1.976-8.563-1.976-13.833
		c0-5.27,0.659-9.821,1.976-13.653c1.317-3.833,3.174-6.965,5.569-9.402c2.395-2.435,5.288-4.252,8.683-5.45
		c3.393-1.197,7.165-1.796,11.318-1.796c3.833,0,7.324,0.521,10.479,1.557c3.153,1.039,5.908,2.556,8.264,4.551
		c2.354,1.997,4.21,4.392,5.569,7.186c1.357,2.795,2.156,5.91,2.396,9.342h-15.689c-0.4-3.034-1.617-5.408-3.653-7.126
		c-2.036-1.716-4.533-2.575-7.485-2.575c-1.677,0-3.234,0.281-4.671,0.838c-1.438,0.56-2.695,1.497-3.773,2.814
		c-1.078,1.317-1.937,3.075-2.575,5.27c-0.64,2.197-0.958,4.892-0.958,8.084c0,6.467,1.157,11.258,3.473,14.372
		c2.315,3.114,4.989,4.671,8.024,4.671c3.034,0,5.629-0.838,7.785-2.515s3.393-4.111,3.713-7.306H337.893z"/>
	<path fill="#393F4D" d="M377.416,104.938L364.48,78.47l-7.545,7.785v18.684h-15.689V24.455h15.689V68.41l19.402-22.396h19.043
		l-19.761,21.678l19.282,37.248H377.416z"/>
	<path fill="#393F4D" d="M406.04,79.548c0.24,4.473,1.537,8.024,3.893,10.659c2.354,2.635,5.449,3.953,9.282,3.953
		c2.555,0,4.81-0.579,6.767-1.737c1.956-1.157,3.213-2.773,3.772-4.851h16.049c-1.838,6.069-5.03,10.74-9.581,14.013
		c-4.551,3.275-9.982,4.911-16.289,4.911c-19.642,0-29.463-10.699-29.463-32.098c0-4.551,0.638-8.663,1.917-12.336
		c1.276-3.672,3.132-6.827,5.569-9.462c2.435-2.635,5.408-4.65,8.923-6.048c3.513-1.396,7.545-2.096,12.097-2.096
		c9.102,0,15.989,2.916,20.66,8.743c4.671,5.829,7.006,14.611,7.006,26.349H406.04z M430.592,69.727
		c-0.081-2.156-0.46-4.052-1.138-5.689c-0.679-1.636-1.578-2.994-2.695-4.072c-1.119-1.078-2.396-1.875-3.833-2.395
		c-1.438-0.519-2.916-0.779-4.432-0.779c-3.114,0-5.809,1.138-8.084,3.414c-2.276,2.275-3.574,5.449-3.893,9.521H430.592z"/>
	<path fill="#393F4D" d="M450.832,104.938V46.013h14.611v7.066c1.276-1.995,2.614-3.552,4.012-4.671
		c1.396-1.118,2.834-1.977,4.313-2.575c1.476-0.599,2.973-0.977,4.491-1.138c1.516-0.159,3.072-0.24,4.671-0.24h2.035v15.929
		c-1.437-0.24-2.874-0.359-4.312-0.359c-9.502,0-14.252,4.751-14.252,14.252v30.66H450.832z"/>
	<path fill="#393F4D" d="M538.859,83.62c-0.4,3.434-1.378,6.548-2.935,9.342c-1.557,2.796-3.533,5.191-5.929,7.186
		c-2.395,1.997-5.131,3.554-8.204,4.671c-3.074,1.117-6.407,1.677-10,1.677c-3.993,0-7.646-0.659-10.959-1.976
		c-3.314-1.318-6.168-3.313-8.563-5.989c-2.396-2.674-4.251-5.988-5.569-9.94c-1.317-3.952-1.976-8.563-1.976-13.833
		c0-5.27,0.658-9.821,1.976-13.653c1.318-3.833,3.174-6.965,5.569-9.402c2.396-2.435,5.289-4.252,8.684-5.45
		c3.393-1.197,7.165-1.796,11.317-1.796c3.833,0,7.325,0.521,10.48,1.557c3.152,1.039,5.907,2.556,8.264,4.551
		c2.354,1.997,4.21,4.392,5.569,7.186c1.356,2.795,2.155,5.91,2.395,9.342h-15.689c-0.4-3.034-1.616-5.408-3.652-7.126
		c-2.036-1.716-4.532-2.575-7.485-2.575c-1.677,0-3.234,0.281-4.671,0.838c-1.438,0.56-2.695,1.497-3.772,2.814
		c-1.078,1.317-1.938,3.075-2.575,5.27c-0.641,2.197-0.958,4.892-0.958,8.084c0,6.467,1.156,11.258,3.473,14.372
		c2.315,3.114,4.989,4.671,8.024,4.671c3.033,0,5.629-0.838,7.785-2.515c2.155-1.677,3.393-4.111,3.713-7.306H538.859z"/>
	<path fill="#393F4D" d="M579.939,104.938V68.41c0-4.471-0.778-7.525-2.336-9.162c-1.557-1.636-4.132-2.456-7.725-2.456
		c-1.916,0-3.635,0.38-5.15,1.138c-1.518,0.76-2.796,1.796-3.832,3.114c-1.039,1.317-1.817,2.835-2.336,4.551
		c-0.52,1.718-0.778,3.574-0.778,5.569v33.774h-15.569V24.455h15.569v29.223c0.558-1.276,1.417-2.495,2.575-3.653
		c1.156-1.157,2.494-2.135,4.012-2.935c1.517-0.797,3.192-1.437,5.03-1.916c1.836-0.479,3.752-0.719,5.749-0.719
		c6.067,0,10.998,1.658,14.791,4.97c3.792,3.314,5.689,7.925,5.689,13.833v41.679H579.939z"/>
	<path fill="#393F4D" d="M638.145,104.938c-0.479-1.516-0.799-3.273-0.958-5.27c-1.838,2.077-4.272,3.733-7.306,4.97
		c-3.035,1.237-6.548,1.856-10.539,1.856c-6.788,0-11.758-1.497-14.911-4.491c-3.155-2.994-4.731-6.887-4.731-11.677
		c0-4.231,0.678-7.605,2.036-10.121c1.357-2.515,3.234-4.491,5.629-5.928c2.396-1.438,5.25-2.495,8.563-3.174
		c3.313-0.678,6.926-1.297,10.839-1.856c3.911-0.558,6.546-1.297,7.905-2.216c1.356-0.917,2.036-2.414,2.036-4.491
		c0-1.917-0.898-3.414-2.695-4.491c-1.797-1.078-4.212-1.617-7.246-1.617c-3.593,0-6.168,0.799-7.725,2.396
		c-1.557,1.598-2.536,3.713-2.935,6.348h-14.491c0.078-3.033,0.578-5.827,1.497-8.384c0.917-2.554,2.395-4.75,4.431-6.587
		c2.036-1.836,4.69-3.252,7.965-4.252c3.273-0.998,7.265-1.497,11.977-1.497c4.63,0,8.563,0.521,11.797,1.557
		c3.234,1.039,5.828,2.536,7.785,4.491c1.956,1.958,3.372,4.392,4.252,7.306c0.878,2.916,1.317,6.209,1.317,9.881v37.248H638.145z
		 M637.066,76.075c-0.799,0.799-1.957,1.437-3.473,1.916c-1.518,0.479-3.713,1-6.587,1.557c-4.473,0.879-7.546,1.997-9.223,3.354
		c-1.677,1.358-2.515,3.314-2.515,5.869c0,4.392,2.515,6.587,7.545,6.587c1.995,0,3.852-0.338,5.569-1.018
		c1.716-0.677,3.192-1.596,4.432-2.754c1.236-1.157,2.234-2.515,2.994-4.072c0.758-1.557,1.138-3.213,1.138-4.97L637.066,76.075z"/>
	<path fill="#393F4D" d="M691.679,66.134h14.491v16.768c0,3.114-0.46,6.089-1.377,8.923c-0.919,2.835-2.356,5.35-4.312,7.545
		c-1.958,2.197-4.432,3.934-7.426,5.21s-6.568,1.917-10.719,1.917c-4.312,0-7.985-0.64-11.019-1.917
		c-3.036-1.276-5.53-2.994-7.485-5.15c-1.958-2.156-3.375-4.671-4.252-7.545c-0.88-2.875-1.317-5.908-1.317-9.102V30.084h15.33
		v15.929h32.576v11.019h-32.576v24.193c0,3.754,0.698,6.647,2.096,8.683c1.396,2.036,3.692,3.054,6.887,3.054
		c3.114,0,5.408-0.998,6.887-2.994c1.477-1.995,2.216-4.83,2.216-8.503V66.134z"/>
</g>
</svg>
