<?xml version="1.0" encoding="utf-8"?>
<!-- Generator: Adobe Illustrator 15.0.0, SVG Export Plug-In . SVG Version: 6.00 Build 0)  -->
<!DOCTYPE svg PUBLIC "-//W3C//DTD SVG 1.1//EN" "http://www.w3.org/Graphics/SVG/1.1/DTD/svg11.dtd">
<svg version="1.1" id="Layer_1" xmlns="http://www.w3.org/2000/svg" xmlns:xlink="http://www.w3.org/1999/xlink" x="0px" y="0px"
	 width="138px" height="134px" viewBox="0 0 138 134" enable-background="new 0 0 138 134" xml:space="preserve">
<g>
	<g>
		<path fill="#D7D9FF" d="M71.495,114.057c1.694,5.43-1.196,11.207-6.422,12.836c-5.226,1.631-10.888-1.478-12.582-6.906
			l-25.49-81.7c-1.694-5.429,1.196-11.206,6.422-12.836c5.226-1.631,10.888,1.478,12.582,6.907L71.495,114.057z"/>
	</g>
	<g>
		<path fill="#393F4D" d="M113.17,101.055c1.694,5.428-1.196,11.205-6.421,12.836c-5.226,1.629-10.888-1.479-12.582-6.908
			L68.676,25.283c-1.694-5.429,1.196-11.206,6.422-12.836c5.226-1.631,10.888,1.478,12.582,6.907L113.17,101.055z"/>
	</g>
	<g>
		<path fill="#684D5E" d="M26.024,72.057c-5.429,1.694-11.206-1.195-12.836-6.421c-1.631-5.226,1.478-10.888,6.907-12.582
			l81.701-25.49c5.429-1.694,11.206,1.196,12.836,6.421c1.63,5.225-1.478,10.888-6.907,12.582L26.024,72.057z"/>
	</g>
	<g>
		<path fill="#683D3D" d="M38.742,112.818c-5.429,1.695-11.206-1.195-12.836-6.42c-1.63-5.227,1.478-10.889,6.907-12.582l81.7-25.49
			c5.429-1.694,11.206,1.195,12.836,6.421c1.631,5.226-1.478,10.888-6.907,12.582L38.742,112.818z"/>
	</g>
	
		<rect x="80.73" y="72.656" transform="matrix(0.2978 0.9546 -0.9546 0.2978 146.9659 -34.5826)" fill="#393F4D" width="32.521" height="19.906"/>
	
		<rect x="33.099" y="39.765" transform="matrix(-0.9546 0.2978 -0.2978 -0.9546 100.9209 97.2602)" fill="#D7D9FF" width="19.906" height="33.107"/>
	
		<rect x="45.363" y="81.318" transform="matrix(-0.9546 0.2979 -0.2979 -0.9546 136.5992 170.3892)" opacity="0.52" fill="#D7D9FF" enable-background="new    " width="19.906" height="28.571"/>
	
		<rect x="33.1" y="40.847" transform="matrix(-0.2978 -0.9546 0.9546 -0.2978 2.1147 114.1868)" opacity="0.8" fill="#684D5E" enable-background="new    " width="19.907" height="30.937"/>
	
		<rect x="74.777" y="28.161" transform="matrix(-0.9546 0.2979 -0.2979 -0.9546 178.5151 59.4122)" opacity="0.8" fill="#393F4D" enable-background="new    " width="19.906" height="30.299"/>
	
		<rect x="86.608" y="72.152" transform="matrix(-0.2978 -0.9546 0.9546 -0.2978 44.7983 201.645)" opacity="0.48" fill="#683D3D" enable-background="new    " width="19.907" height="24.388"/>
</g>
</svg>
